<?xml version="1.0" encoding="UTF-8"?>
<!DOCTYPE svg PUBLIC "-//W3C//DTD SVG 1.1//EN" "http://www.w3.org/Graphics/SVG/1.1/DTD/svg11.dtd">
<svg xmlns="http://www.w3.org/2000/svg" version="1.1" width="317px" height="317px" style="shape-rendering:geometricPrecision; text-rendering:geometricPrecision; image-rendering:optimizeQuality; fill-rule:evenodd; clip-rule:evenodd" xmlns:xlink="http://www.w3.org/1999/xlink">
<g><path style="opacity:0.999" fill="#d4f3fe" d="M 141.5,-0.5 C 152.5,-0.5 163.5,-0.5 174.5,-0.5C 241.804,9.96384 286.97,47.2972 310,111.5C 312.837,121.495 315.003,131.495 316.5,141.5C 316.5,152.5 316.5,163.5 316.5,174.5C 306.036,241.804 268.703,286.97 204.5,310C 194.505,312.837 184.505,315.003 174.5,316.5C 163.5,316.5 152.5,316.5 141.5,316.5C 74.1965,306.036 29.0298,268.703 6,204.5C 3.16341,194.505 0.996745,184.505 -0.5,174.5C -0.5,163.5 -0.5,152.5 -0.5,141.5C 9.96384,74.1965 47.2972,29.0298 111.5,6C 121.495,3.16341 131.495,0.996745 141.5,-0.5 Z"/></g>
<g><path style="opacity:1" fill="#4c4aac" d="M 114.5,92.5 C 137.023,102.628 159.857,112.294 183,121.5C 196.018,114.404 208.851,106.904 221.5,99C 226.366,97.1586 231.366,96.4919 236.5,97C 240.422,99.6055 241.422,103.105 239.5,107.5C 237.397,111.106 234.731,114.273 231.5,117C 219.333,124.5 207.167,132 195,139.5C 193.044,164.505 191.044,189.505 189,214.5C 184,217.5 179,220.5 174,223.5C 171.562,201.197 169.228,178.863 167,156.5C 154.584,164.292 142.084,171.959 129.5,179.5C 127.287,188.77 125.287,198.104 123.5,207.5C 120.429,209.898 117.095,211.898 113.5,213.5C 111.333,202.5 109.167,191.5 107,180.5C 98.3324,173.993 89.8324,167.327 81.5,160.5C 84.5039,157.996 87.8372,155.996 91.5,154.5C 100.076,156.858 108.576,159.525 117,162.5C 130.244,155.075 143.077,147.075 155.5,138.5C 137.2,126.011 118.533,114.011 99.5,102.5C 104.541,99.1075 109.541,95.7742 114.5,92.5 Z"/></g>
</svg>
