<?xml version="1.0" encoding="UTF-8"?>
<!DOCTYPE svg PUBLIC "-//W3C//DTD SVG 1.1//EN" "http://www.w3.org/Graphics/SVG/1.1/DTD/svg11.dtd">
<svg xmlns="http://www.w3.org/2000/svg" version="1.1" width="991px" height="330px" style="shape-rendering:geometricPrecision; text-rendering:geometricPrecision; image-rendering:optimizeQuality; fill-rule:evenodd; clip-rule:evenodd" xmlns:xlink="http://www.w3.org/1999/xlink">
<g><path style="opacity:0.966" fill="#fefefe" d="M 64.5,10.5 C 80.4795,9.93907 95.4795,13.4391 109.5,21C 122.117,30.7345 128.451,43.5679 128.5,59.5C 117.513,60.1661 106.513,60.4994 95.5,60.5C 94.8159,48.2777 88.4826,41.111 76.5,39C 64.6893,36.746 53.856,38.9127 44,45.5C 40.1667,52 41,57.8333 46.5,63C 61.0345,69.0522 76.0345,73.7189 91.5,77C 122.896,84.7187 136.396,104.552 132,136.5C 124.378,159.764 108.211,172.264 83.5,174C 67.4246,175.827 51.7579,174.16 36.5,169C 16.4369,158.736 5.77027,142.236 4.5,119.5C 15.1958,118.764 25.8624,117.764 36.5,116.5C 38.7894,136.791 50.1227,146.791 70.5,146.5C 84.1223,147.817 93.9556,142.483 100,130.5C 101.633,123.265 99.4666,117.431 93.5,113C 81.5091,108.251 69.1758,104.585 56.5,102C 41.1922,99.1 28.3589,91.9333 18,80.5C 5.31621,58.8114 8.14955,39.3114 26.5,22C 38.2407,14.7367 50.9074,10.9033 64.5,10.5 Z"/></g>
<g><path style="opacity:0.947" fill="#fefefe" d="M 158.5,13.5 C 168.833,13.5 179.167,13.5 189.5,13.5C 189.5,23.1667 189.5,32.8333 189.5,42.5C 179.167,42.5 168.833,42.5 158.5,42.5C 158.5,32.8333 158.5,23.1667 158.5,13.5 Z"/></g>
<g><path style="opacity:0.963" fill="#fefefe" d="M 821.5,13.5 C 831.833,13.5 842.167,13.5 852.5,13.5C 852.667,66.1677 852.5,118.834 852,171.5C 842.583,172.485 833.083,172.818 823.5,172.5C 823.666,167.156 823.499,161.823 823,156.5C 805.223,176.693 784.723,179.86 761.5,166C 746.1,152.016 738.766,134.516 739.5,113.5C 739.45,98.6934 743.284,85.0268 751,72.5C 768.238,53.3859 788.405,49.5526 811.5,61C 814.965,63.4626 818.131,66.2959 821,69.5C 821.5,50.8363 821.667,32.1696 821.5,13.5 Z M 791.5,78.5 C 808.005,77.5059 817.505,85.1726 820,101.5C 821.829,111.551 821.496,121.551 819,131.5C 812.342,148.833 800.508,153.667 783.5,146C 774.327,137.026 770.327,126.026 771.5,113C 770.751,101.296 774.418,91.2962 782.5,83C 785.592,81.4541 788.592,79.9541 791.5,78.5 Z"/></g>
<g><path style="opacity:0.953" fill="#fefefe" d="M 278.5,54.5 C 291.787,53.0535 303.787,56.2201 314.5,64C 320.174,70.0112 323.341,77.1779 324,85.5C 324.5,114.498 324.667,143.498 324.5,172.5C 314.251,172.819 304.084,172.486 294,171.5C 293.946,144.465 293.28,117.465 292,90.5C 286.921,79.2403 278.421,75.7403 266.5,80C 259.572,82.5936 255.072,87.4269 253,94.5C 251.723,120.131 251.057,145.798 251,171.5C 240.667,172.833 230.333,172.833 220,171.5C 219.333,133.5 219.333,95.5 220,57.5C 229.417,56.5149 238.917,56.1816 248.5,56.5C 248.334,61.8437 248.501,67.1771 249,72.5C 257.005,63.2587 266.838,57.2587 278.5,54.5 Z"/></g>
<g><path style="opacity:0.962" fill="#fefefe" d="M 412.5,54.5 C 427.929,52.3654 441.095,56.6988 452,67.5C 456.324,73.8041 458.657,80.8041 459,88.5C 459.667,116.167 459.667,143.833 459,171.5C 448.916,172.486 438.749,172.819 428.5,172.5C 428.906,145.474 428.406,118.474 427,91.5C 422.266,79.7958 413.766,75.9624 401.5,80C 390.281,85.5914 385.114,94.758 386,107.5C 385.5,129.164 385.333,150.831 385.5,172.5C 375.167,172.5 364.833,172.5 354.5,172.5C 354.5,133.833 354.5,95.1667 354.5,56.5C 364.167,56.5 373.833,56.5 383.5,56.5C 383.334,61.8437 383.501,67.1771 384,72.5C 391.368,63.0692 400.868,57.0692 412.5,54.5 Z"/></g>
<g><path style="opacity:0.962" fill="#fefefe" d="M 522.5,54.5 C 534.618,53.927 546.618,54.7603 558.5,57C 571.929,60.4256 579.762,68.9256 582,82.5C 582.333,104.167 582.667,125.833 583,147.5C 583.546,155.802 585.713,163.636 589.5,171C 579.66,172.638 569.66,172.971 559.5,172C 557.738,168.215 556.071,164.382 554.5,160.5C 537.843,175.197 519.177,178.363 498.5,170C 483.759,160.325 478.592,146.825 483,129.5C 486.075,120.091 492.241,113.591 501.5,110C 518.396,105.623 535.229,101.123 552,96.5C 553.503,86.9773 549.67,81.144 540.5,79C 534.431,78.1955 528.431,78.5288 522.5,80C 517.343,82.6512 514.343,86.8179 513.5,92.5C 503.55,91.5105 493.883,89.5105 484.5,86.5C 490.255,67.3966 502.922,56.7299 522.5,54.5 Z M 550.5,117.5 C 556.523,137.02 549.356,148.687 529,152.5C 516.134,150.983 511.134,143.983 514,131.5C 516.89,127.633 520.723,125.133 525.5,124C 534.071,122.26 542.404,120.093 550.5,117.5 Z"/></g>
<g><path style="opacity:0.961" fill="#fefefe" d="M 670.5,54.5 C 686.173,52.5548 699.34,57.2214 710,68.5C 713.538,73.9848 715.538,79.9848 716,86.5C 716.5,115.165 716.667,143.831 716.5,172.5C 706.167,172.5 695.833,172.5 685.5,172.5C 685.937,145.133 685.437,117.8 684,90.5C 678.881,79.2293 670.381,75.7293 658.5,80C 651.572,82.5936 647.072,87.4269 645,94.5C 643.892,101.115 643.225,107.782 643,114.5C 642.5,133.83 642.333,153.164 642.5,172.5C 632.251,172.819 622.084,172.486 612,171.5C 611.333,133.5 611.333,95.5 612,57.5C 621.417,56.5149 630.917,56.1816 640.5,56.5C 640.334,61.8437 640.501,67.1771 641,72.5C 648.672,62.7565 658.505,56.7565 670.5,54.5 Z"/></g>
<g><path style="opacity:0.962" fill="#fefefe" d="M 914.5,54.5 C 926.618,53.927 938.618,54.7603 950.5,57C 964.361,60.526 972.195,69.3593 974,83.5C 974.333,105.167 974.667,126.833 975,148.5C 975.384,156.538 977.55,164.038 981.5,171C 981.167,171.333 980.833,171.667 980.5,172C 970.833,172.667 961.167,172.667 951.5,172C 949.461,168.365 947.794,164.532 946.5,160.5C 929.814,175.003 911.147,178.17 890.5,170C 876.765,161.689 871.265,149.522 874,133.5C 877.772,118.668 887.272,109.835 902.5,107C 916.592,104.383 930.426,100.883 944,96.5C 945.559,86.4222 941.393,80.5889 931.5,79C 918.99,75.808 910.156,79.9746 905,91.5C 904.275,92.0585 903.442,92.3918 902.5,92.5C 894.513,90.936 886.513,89.436 878.5,88C 877.692,87.6924 877.025,87.1924 876.5,86.5C 882.23,67.4257 894.897,56.759 914.5,54.5 Z M 942.5,117.5 C 943.794,119.048 944.461,121.048 944.5,123.5C 944.909,144.93 934.576,154.096 913.5,151C 904.013,145.073 902.346,137.573 908.5,128.5C 911.221,126.473 914.221,124.973 917.5,124C 926.009,122.006 934.342,119.839 942.5,117.5 Z"/></g>
<g><path style="opacity:0.961" fill="#fefffe" d="M 159.5,56.5 C 169.5,56.5 179.5,56.5 189.5,56.5C 189.5,95.1667 189.5,133.833 189.5,172.5C 179.251,172.819 169.084,172.486 159,171.5C 158.173,133.095 158.34,94.7621 159.5,56.5 Z"/></g>
<g><path style="opacity:0.942" fill="#f75858" d="M 737.5,190.5 C 751.11,195.871 764.61,201.538 778,207.5C 785.415,202.542 792.915,197.709 800.5,193C 804.175,191.021 807.675,191.188 811,193.5C 811.76,198.482 809.927,202.315 805.5,205C 799.085,209.291 792.585,213.458 786,217.5C 784.628,232.119 783.462,246.785 782.5,261.5C 779.528,263.306 776.695,265.306 774,267.5C 773.667,267.167 773.333,266.833 773,266.5C 771.829,253.787 770.329,241.12 768.5,228.5C 761.328,232.919 754.328,237.585 747.5,242.5C 746.654,247.911 745.487,253.245 744,258.5C 742.13,260.219 739.963,261.219 737.5,261.5C 736.766,255.097 735.599,248.764 734,242.5C 728.833,238.667 723.667,234.833 718.5,231C 720.667,229.5 722.833,228 725,226.5C 730,228.167 735,229.833 740,231.5C 747.253,226.79 754.42,221.957 761.5,217C 750.334,210.585 739.334,203.918 728.5,197C 731.567,194.812 734.567,192.645 737.5,190.5 Z"/></g>
<g><path style="opacity:0.979" fill="#f75858" d="M 146.5,193.5 C 148.527,193.338 150.527,193.505 152.5,194C 185.59,210.545 218.923,226.545 252.5,242C 279.452,253.761 307.452,262.094 336.5,267C 435.569,283.932 534.569,283.599 633.5,266C 663.041,260.279 692.374,253.946 721.5,247C 695.154,270.346 664.82,286.679 630.5,296C 561.06,315.477 490.393,322.144 418.5,316C 362.846,311.87 308.846,300.203 256.5,281C 233.47,269.828 212.137,256.161 192.5,240C 176.734,226.905 161.568,213.071 147,198.5C 146.506,196.866 146.34,195.199 146.5,193.5 Z"/></g>
</svg>
