<?xml version="1.0" encoding="UTF-8"?>
<!DOCTYPE svg PUBLIC "-//W3C//DTD SVG 1.1//EN" "http://www.w3.org/Graphics/SVG/1.1/DTD/svg11.dtd">
<svg xmlns="http://www.w3.org/2000/svg" version="1.1" width="998px" height="328px" style="shape-rendering:geometricPrecision; text-rendering:geometricPrecision; image-rendering:optimizeQuality; fill-rule:evenodd; clip-rule:evenodd" xmlns:xlink="http://www.w3.org/1999/xlink">
<g><path style="opacity:0.981" fill="#252525" d="M 68.5,6.5 C 85.3853,5.64253 101.052,9.47587 115.5,18C 127.53,27.5806 133.53,40.0806 133.5,55.5C 122.513,56.1661 111.513,56.4994 100.5,56.5C 99.2622,44.7655 92.9289,37.5989 81.5,35C 70.5595,33.1775 60.2262,34.8442 50.5,40C 43.4594,50.138 45.7927,57.4713 57.5,62C 69.9749,66.2858 82.6415,69.9525 95.5,73C 128.798,81.1114 142.298,101.945 136,135.5C 127.702,157.091 111.868,168.591 88.5,170C 72.4246,171.827 56.7579,170.16 41.5,165C 21.1817,154.89 10.5151,138.39 9.5,115.5C 19.885,114.66 30.2184,113.827 40.5,113C 46.9751,138.874 63.3085,148.207 89.5,141C 103.04,136.089 107.54,126.923 103,113.5C 98.8743,109.518 94.0409,106.685 88.5,105C 70.1617,101.331 52.495,95.6647 35.5,88C 13.3353,71.1819 9.1686,50.6819 23,26.5C 35.3597,13.3288 50.5263,6.66213 68.5,6.5 Z"/></g>
<g><path style="opacity:0.982" fill="#252525" d="M 163.5,9.5 C 173.833,9.5 184.167,9.5 194.5,9.5C 194.5,19.1667 194.5,28.8333 194.5,38.5C 184.167,38.5 173.833,38.5 163.5,38.5C 163.5,28.8333 163.5,19.1667 163.5,9.5 Z"/></g>
<g><path style="opacity:0.986" fill="#252525" d="M 825.5,9.5 C 835.833,9.5 846.167,9.5 856.5,9.5C 856.5,62.5 856.5,115.5 856.5,168.5C 847.161,168.666 837.827,168.5 828.5,168C 827.695,163.251 827.195,158.418 827,153.5C 809.161,172.771 788.995,175.604 766.5,162C 750.907,148.077 743.574,130.577 744.5,109.5C 743.753,91.2334 749.419,75.4001 761.5,62C 780.731,47.5393 800.397,46.8727 820.5,60C 822,61.5 823.5,63 825,64.5C 825.5,46.1697 825.667,27.8364 825.5,9.5 Z M 796.5,74.5 C 813.396,73.7 822.896,81.7 825,98.5C 826.096,108.975 825.429,119.308 823,129.5C 815.58,144.973 804.08,149.14 788.5,142C 781.071,135.975 777.238,128.141 777,118.5C 775.731,108.25 776.731,98.2502 780,88.5C 783.585,81.4032 789.085,76.7365 796.5,74.5 Z"/></g>
<g><path style="opacity:0.988" fill="#252525" d="M 283.5,50.5 C 299.134,48.5427 312.301,53.2093 323,64.5C 326.538,69.9848 328.538,75.9848 329,82.5C 329.5,111.165 329.667,139.831 329.5,168.5C 319.167,168.5 308.833,168.5 298.5,168.5C 298.937,141.467 298.437,114.467 297,87.5C 292.449,75.412 283.949,71.5787 271.5,76C 264.572,78.5936 260.072,83.4269 258,90.5C 256.876,96.1027 256.21,101.769 256,107.5C 255.5,127.831 255.333,148.164 255.5,168.5C 245.251,168.819 235.084,168.486 225,167.5C 224.333,129.5 224.333,91.5 225,53.5C 234.417,52.5149 243.917,52.1816 253.5,52.5C 253.334,57.8437 253.501,63.1771 254,68.5C 261.635,58.7716 271.468,52.7716 283.5,50.5 Z"/></g>
<g><path style="opacity:0.983" fill="#252525" d="M 417.5,50.5 C 432.929,48.3654 446.095,52.6988 457,63.5C 459.973,68.0788 461.973,73.0788 463,78.5C 464.591,108.141 464.925,137.808 464,167.5C 453.916,168.486 443.749,168.819 433.5,168.5C 433.87,141.812 433.37,115.145 432,88.5C 428.691,77.2546 421.191,72.7546 409.5,75C 400.333,77.5 394.5,83.3333 392,92.5C 390.747,117.472 390.08,142.472 390,167.5C 379.916,168.486 369.749,168.819 359.5,168.5C 359.5,129.833 359.5,91.1667 359.5,52.5C 368.839,52.3335 378.173,52.5002 387.5,53C 388.307,58.083 388.807,63.2497 389,68.5C 396.368,59.0692 405.868,53.0692 417.5,50.5 Z"/></g>
<g><path style="opacity:0.979" fill="#252525" d="M 527.5,50.5 C 539.618,49.927 551.618,50.7603 563.5,53C 577.819,56.6507 585.653,65.8174 587,80.5C 587.333,102.167 587.667,123.833 588,145.5C 588.559,153.175 590.726,160.342 594.5,167C 594.167,167.333 593.833,167.667 593.5,168C 583.483,168.832 573.483,168.666 563.5,167.5C 562.165,163.828 560.832,160.161 559.5,156.5C 542.003,171.564 522.67,174.397 501.5,165C 485.602,152.45 482.102,136.95 491,118.5C 496.142,111.371 502.975,106.538 511.5,104C 526.892,100.923 542.059,97.0899 557,92.5C 558.568,82.4442 554.401,76.6109 544.5,75C 531.99,71.808 523.156,75.9746 518,87.5C 517.275,88.0585 516.442,88.3918 515.5,88.5C 506.948,86.8895 498.448,85.2228 490,83.5C 494.811,63.8603 507.311,52.8603 527.5,50.5 Z M 555.5,113.5 C 556.787,114.871 557.453,116.705 557.5,119C 558.041,140.543 547.708,149.876 526.5,147C 516.714,141.008 515.048,133.341 521.5,124C 524.382,122.392 527.382,121.059 530.5,120C 539.009,118.006 547.342,115.839 555.5,113.5 Z"/></g>
<g><path style="opacity:0.98" fill="#252525" d="M 674.5,50.5 C 689.929,48.3654 703.095,52.6988 714,63.5C 718.115,69.5114 720.449,76.1781 721,83.5C 721.5,111.831 721.667,140.165 721.5,168.5C 711.167,168.5 700.833,168.5 690.5,168.5C 690.916,141.472 690.416,114.472 689,87.5C 686.708,78.8449 681.041,74.5116 672,74.5C 654.54,76.6919 646.54,86.6919 648,104.5C 647.5,125.831 647.333,147.164 647.5,168.5C 637.251,168.819 627.084,168.486 617,167.5C 616.5,129.168 616.333,90.8348 616.5,52.5C 626.167,52.5 635.833,52.5 645.5,52.5C 645.334,57.8437 645.501,63.1771 646,68.5C 653.368,59.0692 662.868,53.0692 674.5,50.5 Z"/></g>
<g><path style="opacity:0.979" fill="#252525" d="M 919.5,50.5 C 931.613,49.964 943.613,50.7973 955.5,53C 970.308,56.8031 978.141,66.3031 979,81.5C 979.333,103.5 979.667,125.5 980,147.5C 981.538,154.608 983.371,161.608 985.5,168.5C 975.478,168.832 965.478,168.499 955.5,167.5C 954.284,163.679 952.784,160.012 951,156.5C 932.334,172.478 912.167,174.645 890.5,163C 877.464,150.021 874.964,135.187 883,118.5C 888.142,111.371 894.975,106.538 903.5,104C 918.553,100.653 933.553,97.1533 948.5,93.5C 950.859,83.0264 946.859,76.8597 936.5,75C 930.763,74.2106 925.097,74.5439 919.5,76C 914.886,78.6157 911.72,82.449 910,87.5C 909.107,88.0814 908.107,88.4148 907,88.5C 898.584,87.0431 890.251,85.3764 882,83.5C 883.78,73.0298 888.947,64.5298 897.5,58C 904.578,54.3637 911.911,51.8637 919.5,50.5 Z M 946.5,113.5 C 953.144,133.198 946.144,144.865 925.5,148.5C 914.198,147.041 909.031,140.708 910,129.5C 912.553,124.297 916.72,121.13 922.5,120C 930.713,118.133 938.713,115.966 946.5,113.5 Z"/></g>
<g><path style="opacity:0.983" fill="#252525" d="M 163.5,52.5 C 173.833,52.5 184.167,52.5 194.5,52.5C 194.5,91.1667 194.5,129.833 194.5,168.5C 184.251,168.819 174.084,168.486 164,167.5C 163.5,129.168 163.333,90.8348 163.5,52.5 Z"/></g>
<g><path style="opacity:0.974" fill="#4a48ab" d="M 741.5,186.5 C 755.262,191.546 768.929,196.879 782.5,202.5C 790.129,198.016 797.796,193.516 805.5,189C 817.688,186.667 819.688,190.333 811.5,200C 804.5,204.5 797.5,209 790.5,213.5C 789.303,227.142 788.469,240.809 788,254.5C 785.833,258.825 782.333,261.492 777.5,262.5C 776.717,249.655 775.217,236.988 773,224.5C 765.728,228.774 758.728,233.441 752,238.5C 751.277,243.896 750.277,249.229 749,254.5C 747.247,255.627 745.413,256.627 743.5,257.5C 741.558,251.291 740.058,244.958 739,238.5C 733.833,234.667 728.667,230.833 723.5,227C 725.422,225.124 727.589,223.624 730,222.5C 735.029,224.172 740.029,225.838 745,227.5C 752.253,222.79 759.42,217.957 766.5,213C 755.666,206.082 744.666,199.415 733.5,193C 736.355,190.969 739.022,188.803 741.5,186.5 Z"/></g>
<g><path style="opacity:0.987" fill="#4a48ab" d="M 152.5,188.5 C 183.933,203.049 215.266,217.882 246.5,233C 275.179,246.672 305.179,256.338 336.5,262C 467.631,285.085 597.131,278.252 725,241.5C 725.167,241.833 725.333,242.167 725.5,242.5C 712.457,255.195 697.791,265.695 681.5,274C 642.922,291.396 602.589,302.729 560.5,308C 458.309,321.614 358.642,311.281 261.5,277C 220.751,255.266 184.251,227.766 152,194.5C 149.947,192.287 150.113,190.287 152.5,188.5 Z"/></g>
</svg>
